<?xml version="1.0" encoding="UTF-8"?>
<svg id="Calque_2" data-name="Calque 2" xmlns="http://www.w3.org/2000/svg" viewBox="0 0 1383.5 387">
  <defs>
    <style>
      .cls-1 {
        fill: #1e1e1e;
      }
    </style>
  </defs>
  <g id="Calque_1-2" data-name="Calque 1">
    <path class="cls-1" d="M1240.89,323c-18.88,0-35.61-4.09-50.18-12.28-14.24-8.51-25.51-20.46-33.79-35.85-7.95-15.39-11.92-33.23-11.92-53.53V76h58.13v140.93c0,19.31,4.8,33.72,14.41,43.21,9.6,9.49,23.35,14.24,41.24,14.24,19.87,0,35.44-6.55,46.7-19.64,11.59-13.1,17.39-31.59,17.39-55.49v-123.26h58.13l2.5,246.5h-57.14l-2.5-36.82h-8.44c-4.31,8.51-12.09,16.86-23.35,25.04-11.27,8.18-28.32,12.28-51.18,12.28Z"/>
    <path class="cls-1" d="M979.25,323c-25,0-47.47-4.91-67.4-14.74-19.6-9.83-35.14-24.08-46.62-42.75-11.49-18.67-17.23-41.11-17.23-67.32v-7.37c0-25.88,5.74-48.16,17.23-66.83s27.03-32.92,46.62-42.75c19.93-10.16,42.4-15.23,67.4-15.23s47.3,5.08,66.9,15.23c19.93,9.83,35.47,24.08,46.62,42.75,11.49,18.67,17.23,40.95,17.23,66.83v7.37c0,26.21-5.74,48.65-17.23,67.32-11.15,18.67-26.69,32.92-46.62,42.75-19.6,9.83-41.9,14.74-66.9,14.74ZM979.25,271.89c20.61,0,37.67-6.55,51.19-19.66,13.51-13.1,20.27-31.45,20.27-55.04v-4.91c0-23.92-6.76-42.42-20.27-55.53-13.18-13.1-30.24-19.66-51.19-19.66s-38.18,6.55-51.69,19.66c-13.51,13.1-20.27,31.61-20.27,55.53v4.91c0,23.59,6.76,41.93,20.27,55.04,13.51,13.1,30.74,19.66,51.69,19.66Z"/>
    <path class="cls-1" d="M612,323v-70.36l135.13-120.26v-7.49h-130.29v-48.9h192.28v70.36l-135.61,120.76v7.48h139.49v48.4h-201Z"/>
    <path class="cls-1" d="M507,323V76h61v247h-61Z"/>
    <ellipse class="cls-1" cx="145.5" cy="324" rx="65.5" ry="63"/>
    <ellipse class="cls-1" cx="65.5" cy="196" rx="65.5" ry="65"/>
    <ellipse class="cls-1" cx="301.5" cy="324" rx="65.5" ry="63"/>
    <circle class="cls-1" cx="301.5" cy="65.5" r="65.5"/>
    <circle class="cls-1" cx="145.5" cy="65.5" r="65.5"/>
    <ellipse class="cls-1" cx="381.5" cy="196" rx="65.5" ry="65"/>
  </g>
</svg>