<svg width="1384" height="387" viewBox="0 0 1384 387" fill="none" xmlns="http://www.w3.org/2000/svg">
<path d="M1240.89 323C1222.01 323 1205.28 318.908 1190.71 310.724C1176.47 302.212 1165.2 290.263 1156.92 274.877C1148.97 259.49 1145 241.649 1145 221.352V76H1203.13V216.932C1203.13 236.247 1207.93 250.651 1217.54 260.145C1227.14 269.639 1240.89 274.386 1258.78 274.386C1278.65 274.386 1294.22 267.838 1305.48 254.744C1317.07 241.649 1322.87 223.152 1322.87 199.255V76H1381L1383.5 322.5H1326.36L1323.86 285.68H1315.42C1311.11 294.192 1303.33 302.539 1292.07 310.724C1280.8 318.908 1263.75 323 1240.89 323Z" fill="#FBFBFB"/>
<path d="M979.253 323C954.253 323 931.786 318.086 911.853 308.258C892.258 298.43 876.717 284.18 865.23 265.507C853.743 246.834 848 224.393 848 198.185V190.815C848 164.934 853.743 142.658 865.23 123.985C876.717 105.312 892.258 91.0612 911.853 81.2333C931.786 71.0777 954.253 66 979.253 66C1004.25 66 1026.55 71.0777 1046.15 81.2333C1066.08 91.0612 1081.62 105.312 1092.77 123.985C1104.26 142.658 1110 164.934 1110 190.815V198.185C1110 224.393 1104.26 246.834 1092.77 265.507C1081.62 284.18 1066.08 298.43 1046.15 308.258C1026.55 318.086 1004.25 323 979.253 323ZM979.253 271.895C999.862 271.895 1016.92 265.343 1030.44 252.239C1043.95 239.135 1050.71 220.79 1050.71 197.203V192.289C1050.71 168.374 1043.95 149.865 1030.44 136.761C1017.26 123.657 1000.2 117.105 979.253 117.105C958.307 117.105 941.077 123.657 927.563 136.761C914.049 149.865 907.292 168.374 907.292 192.289V197.203C907.292 220.79 914.049 239.135 927.563 252.239C941.077 265.343 958.307 271.895 979.253 271.895Z" fill="#FBFBFB"/>
<path d="M612 323V252.642L747.13 132.386V124.901H616.843V76H809.125V146.358L673.511 267.113V274.598H813V323H612Z" fill="#FBFBFB"/>
<path d="M507 323V76H568V323H507Z" fill="#FBFBFB"/>
<ellipse cx="145.5" cy="324" rx="65.5" ry="63" fill="#FBFBFB"/>
<ellipse cx="65.5" cy="196" rx="65.5" ry="65" fill="#FBFBFB"/>
<ellipse cx="301.5" cy="324" rx="65.5" ry="63" fill="#FBFBFB"/>
<circle cx="301.5" cy="65.5" r="65.5" fill="#FBFBFB"/>
<circle cx="145.5" cy="65.5" r="65.5" fill="#FBFBFB"/>
<ellipse cx="381.5" cy="196" rx="65.5" ry="65" fill="#FBFBFB"/>
</svg>
